<svg width="16" height="16" viewBox="0 0 16 16" fill="none" xmlns="http://www.w3.org/2000/svg">
<g clip-path="url(#clip0_748_1131)">
<path d="M12.0622 15.1111H3.93775C3.76673 15.1071 3.59817 15.0694 3.44172 15.0002C3.28527 14.931 3.14398 14.8316 3.02594 14.7078C2.9079 14.584 2.81541 14.4381 2.75376 14.2785C2.69211 14.119 2.66251 13.9488 2.66664 13.7778V4.99112H3.55553V13.7778C3.55129 13.8321 3.55782 13.8867 3.57476 13.9385C3.5917 13.9903 3.6187 14.0382 3.65422 14.0795C3.68974 14.1208 3.73308 14.1547 3.78174 14.1792C3.8304 14.2037 3.88342 14.2183 3.93775 14.2222H12.0622C12.1165 14.2183 12.1695 14.2037 12.2182 14.1792C12.2669 14.1547 12.3102 14.1208 12.3457 14.0795C12.3812 14.0382 12.4082 13.9903 12.4252 13.9385C12.4421 13.8867 12.4487 13.8321 12.4444 13.7778V4.99112H13.3333V13.7778C13.3374 13.9488 13.3078 14.119 13.2462 14.2785C13.1845 14.4381 13.092 14.584 12.974 14.7078C12.856 14.8316 12.7147 14.931 12.5582 15.0002C12.4018 15.0694 12.2332 15.1071 12.0622 15.1111V15.1111Z" fill="#6F6F6F"/>
<path d="M13.6801 4H2.22228C2.1044 4 1.99136 3.95318 1.90801 3.86983C1.82466 3.78648 1.77783 3.67343 1.77783 3.55556C1.77783 3.43769 1.82466 3.32464 1.90801 3.24129C1.99136 3.15794 2.1044 3.11111 2.22228 3.11111H13.6801C13.7979 3.11111 13.911 3.15794 13.9943 3.24129C14.0777 3.32464 14.1245 3.43769 14.1245 3.55556C14.1245 3.67343 14.0777 3.78648 13.9943 3.86983C13.911 3.95318 13.7979 4 13.6801 4Z" fill="#6F6F6F"/>
<path d="M9.33337 5.77777H10.2223V12.4444H9.33337V5.77777Z" fill="#6F6F6F"/>
<path d="M5.77783 5.77777H6.66672V12.4444H5.77783V5.77777Z" fill="#6F6F6F"/>
<path d="M10.2223 2.60444H9.37783V1.77777H6.62228V2.60444H5.77783V1.77777C5.77755 1.54953 5.86507 1.32992 6.02228 1.16444C6.17948 0.998963 6.39432 0.900298 6.62228 0.888885H9.37783C9.60579 0.900298 9.82063 0.998963 9.97783 1.16444C10.135 1.32992 10.2226 1.54953 10.2223 1.77777V2.60444Z" fill="#6F6F6F"/>
</g>
<defs>
<clipPath id="clip0_748_1131">
<rect width="16" height="16" fill="white"/>
</clipPath>
</defs>
</svg>
